<?xml version="1.0" encoding="UTF-8" standalone="no"?>
<!-- Created with Inkscape (http://www.inkscape.org/) -->

<svg
   width="48"
   height="48"
   inkscape:version="1.4.3 (0d15f75, 2025-12-25)"
   sodipodi:docname="icon-home-48.svg"
   version="1.1"
   viewBox="0 0 12.7 12.7"
   id="svg1"
   xmlns:inkscape="http://www.inkscape.org/namespaces/inkscape"
   xmlns:sodipodi="http://sodipodi.sourceforge.net/DTD/sodipodi-0.dtd"
   xmlns="http://www.w3.org/2000/svg"
   xmlns:svg="http://www.w3.org/2000/svg">
  <defs
     id="defs1" />
  <sodipodi:namedview
     bordercolor="#000000"
     borderopacity="0.25"
     inkscape:current-layer="svg1"
     inkscape:cx="13.305263"
     inkscape:cy="24"
     inkscape:deskcolor="#d1d1d1"
     inkscape:pagecheckerboard="0"
     inkscape:pageopacity="0.0"
     inkscape:showpageshadow="2"
     inkscape:window-height="1009"
     inkscape:window-maximized="1"
     inkscape:window-width="1920"
     inkscape:window-x="3832"
     inkscape:window-y="137"
     inkscape:zoom="17.8125"
     pagecolor="#ffffff"
     showgrid="false"
     id="namedview1" />
  <path
     d="m6.3503 1.6356a0.57107 0.57107 0 0 0-0.37104 0.13746 0.57107 0.57107 0 0 0-0.019637 0.01705l-2.8205 2.4448-0.00879 0.0072v5.16e-4a0.57107 0.57107 0 0 0-0.20619 0.43873v4.5403a0.57107 0.57107 0 0 0 0 5.16e-4 0.57107 0.57107 0 0 0 0.57102 0.57102h5.7097a0.57107 0.57107 0 0 0 0.57102-0.57102v-4.5408a0.57107 0.57107 0 0 0-0.20618-0.43921l-2.821-2.4443a0.57107 0.57107 0 0 0-0.00517-0.0052l-0.00568-0.0052a0.57107 0.57107 0 0 0-0.38757-0.15193z"
     id="path1" />
</svg>
